<?xml version="1.0" encoding="iso-8859-1"?>
<!-- Generator: Adobe Illustrator 19.0.0, SVG Export Plug-In . SVG Version: 6.00 Build 0)  -->
<svg version="1.1" id="Capa_1" xmlns="http://www.w3.org/2000/svg" xmlns:xlink="http://www.w3.org/1999/xlink" x="0px" y="0px"
	 viewBox="0 0 512 512" style="enable-background:new 0 0 512 512;" xml:space="preserve">
<path style="fill:#EC1518;" d="M412.724,471.918c0,0-42.841-45.693-67.918-50.918l-55.38,50.918l-29.644-237.307L256,204.351
	l-3.783,30.26l-29.654,237.307L167.184,421c-25.078,5.224-67.918,50.918-67.918,50.918
	c-15.475-61.388,22.434-152.231,48.859-205.051c12.821-25.631,22.946-42.308,22.946-42.308l19.487-79.935h130.884l19.477,79.935
	c0,0,10.115,16.666,22.946,42.297C390.29,319.666,428.199,410.52,412.724,471.918z"/>
<path style="fill:#D6121C;" d="M340.919,224.559l-19.477-79.935H212.501h-21.943l-19.487,79.935c0,0-0.356,0.586-1.019,1.708
	c-0.331,0.561-0.74,1.256-1.218,2.077c-0.638,1.096-1.402,2.419-2.278,3.954c-1.094,1.918-2.361,4.167-3.774,6.717
	c-0.282,0.51-0.571,1.032-0.865,1.565c-2.057,3.737-4.388,8.052-6.914,12.865c-0.722,1.375-1.46,2.791-2.211,4.245
	c-0.752,1.454-1.518,2.948-2.297,4.477c-0.778,1.53-1.569,3.097-2.371,4.699c-26.424,52.82-64.333,143.663-48.858,205.051
	c0,0,7.899-8.422,18.902-18.453c-5.256-60.04,28.014-138.856,51.9-186.598c0.017-0.032,0.032-0.065,0.049-0.097
	c2.899-5.793,7.741-10.389,13.656-13.028c3.568-1.591,6.887-3.163,9.941-4.679c9.665-4.807,19.843-8.432,30.292-10.856
	c9.237-2.132,18.683-3.333,28.212-3.594l3.783-30.26l3.783,30.26c20.302,0.543,40.281,5.402,58.504,14.451
	c11.619,5.778,27.011,12.33,45.578,17.795C351.033,241.225,340.919,224.559,340.919,224.559z"/>
<path style="fill:#EC1518;" d="M512,202.219c0,20.271-19.205,48.003-94.939,40.532c-52.893-5.214-92.254-23.949-111.188-34.785
	c-8.171-4.681-12.539-7.879-12.539-7.879h-74.668c0,0-48.003,35.203-123.737,42.663C19.195,250.222,0,222.49,0,202.219
	c0-20.261,12.8-48.003,12.8-76.8S3.197,91.282,3.197,75.285s26.666-35.203,74.668-35.203s101.867,12.267,140.8,51.2h12.539
	l62.13,0.01c4.023-4.033,8.213-7.774,12.539-11.243c37.47-30.104,85.222-39.957,128.261-39.957
	c47.992,0,74.658,19.195,74.658,35.192c0,16.008-9.592,21.337-9.592,50.134S512,181.959,512,202.219z"/>
<g>
	<path style="fill:#D6121C;" d="M84.198,243.597C17.356,247.526,0,221.497,0,202.219c0-20.261,12.8-48.003,12.8-76.8
		S3.197,91.282,3.197,75.285s26.666-35.203,74.668-35.203c4.639,0,9.331,0.115,14.054,0.355
		c-41.044,2.675-63.645,20.125-63.645,34.847c0,15.997,9.603,21.337,9.603,50.134s-12.8,56.539-12.8,76.8
		C25.078,218.823,37.951,240.421,84.198,243.597z"/>
	<path style="fill:#D6121C;" d="M305.873,80.05v127.916c-8.171-4.681-12.539-7.879-12.539-7.879h-62.13V91.282l62.13,0.01
		C297.357,87.259,301.547,83.519,305.873,80.05z"/>
</g>
<path style="fill:#EC1518;" d="M280.197,84.887h-24.2h-24.2c-7.254,0-13.133,5.88-13.133,13.133v93.2
	c0,7.254,5.88,13.133,13.133,13.133h48.4c7.254,0,13.133-5.88,13.133-13.133v-93.2C293.33,90.768,287.45,84.887,280.197,84.887z"/>
<g>
	<path style="fill:#D6121C;" d="M245.831,191.222V98.021c0-7.254,5.88-13.133,13.133-13.133h-2.967h-24.2
		c-7.254,0-13.133,5.88-13.133,13.133v93.2c0,7.254,5.88,13.133,13.133,13.133h27.167
		C251.711,204.355,245.831,198.474,245.831,191.222z"/>
	<path style="fill:#D6121C;" d="M111.525,176.491c43.646,0,79.028-14.268,79.028-31.869s-35.382-31.869-79.028-31.869l0,0
		C135.445,127.265,135.445,161.977,111.525,176.491L111.525,176.491z"/>
	<path style="fill:#D6121C;" d="M400.469,176.491c-43.646,0-79.028-14.268-79.028-31.869s35.382-31.869,79.028-31.869l0,0
		C376.548,127.265,376.548,161.977,400.469,176.491L400.469,176.491z"/>
</g>
<g>
</g>
<g>
</g>
<g>
</g>
<g>
</g>
<g>
</g>
<g>
</g>
<g>
</g>
<g>
</g>
<g>
</g>
<g>
</g>
<g>
</g>
<g>
</g>
<g>
</g>
<g>
</g>
<g>
</g>
</svg>
