<svg id="icon" height="512" viewBox="0 0 128 128" width="512" xmlns="http://www.w3.org/2000/svg"><path d="m1.026 62.113h81.332v63.328h-81.332z" fill="#ef5361"/><path d="m82.354 62.11v63.333h-81.324v-6.795h74.888v-56.538z" fill="#da2a47"/><path d="m82.357 126.441h-81.331a1 1 0 0 1 -1-1v-63.328a1 1 0 0 1 1-1h81.331a1 1 0 0 1 1 1v63.328a1 1 0 0 1 -1 1zm-80.331-2h79.331v-61.328h-79.331z" fill="#2f3a5a"/><path d="m35.248 62.113h13.272v63.328h-13.272z" fill="#d9e2e9"/><path d="m48.521 126.441h-13.273a1 1 0 0 1 -1-1v-63.328a1 1 0 0 1 1-1h13.273a1 1 0 0 1 1 1v63.328a1 1 0 0 1 -1 1zm-12.272-2h11.272v-61.328h-11.273z" fill="#2f3a5a"/><path d="m126.051 96.807a9.95 9.95 0 0 0 1.287-9.517 11.964 11.964 0 0 0 -7.02-6.751 13.314 13.314 0 0 0 -6.991-.6 16.561 16.561 0 0 0 -7.556 3.789l-2.9 4.18q4.235 3.963 8.467 7.92c1.71 1.606 3.506 3.256 5.744 3.944a8.529 8.529 0 0 0 8.969-2.965zm-13.122-2.381a8.967 8.967 0 0 1 -3.325-2.28l-4.894-4.58 1.673-2.417a9.693 9.693 0 0 1 4.372-2.191 7.7 7.7 0 0 1 4.041.351 6.924 6.924 0 0 1 4.059 3.9 5.768 5.768 0 0 1 -.747 5.507 4.941 4.941 0 0 1 -5.179 1.71z" fill="#d9e2e9"/><path d="m119.316 101.1a8.554 8.554 0 0 1 -2.527-.375c-2.519-.775-4.523-2.658-6.134-4.171l-8.466-7.919a1 1 0 0 1 -.139-1.3l2.9-4.181a1.025 1.025 0 0 1 .177-.194 17.585 17.585 0 0 1 8.021-4.009 14.251 14.251 0 0 1 7.519.645 12.987 12.987 0 0 1 7.608 7.333 10.967 10.967 0 0 1 -1.435 10.489 9.663 9.663 0 0 1 -7.524 3.682zm-7.186-5.9a14.473 14.473 0 0 0 5.247 3.618 7.554 7.554 0 0 0 7.884-2.626 8.931 8.931 0 0 0 1.14-8.544 10.956 10.956 0 0 0 -6.434-6.17 12.237 12.237 0 0 0 -6.46-.554 13.44 13.44 0 0 0 -3.454 1.166c.171-.043.343-.081.514-.113a8.674 8.674 0 0 1 4.573.4 7.934 7.934 0 0 1 4.645 4.477 6.789 6.789 0 0 1 -.893 6.48 5.93 5.93 0 0 1 -6.259 2.054c-.17-.059-.338-.12-.502-.188zm-6.107-7.776 4.264 3.991a8.232 8.232 0 0 0 2.935 2.054 3.944 3.944 0 0 0 4.1-1.374 4.753 4.753 0 0 0 .6-4.534 5.908 5.908 0 0 0 -3.471-3.316 6.66 6.66 0 0 0 -3.515-.305 8.64 8.64 0 0 0 -3.808 1.889z" fill="#2f3a5a"/><path d="m96.247 66.054c-.385 2.309.286 4.654.958 6.9q1.645 5.553 3.3 11.116l5.035-.722a16.561 16.561 0 0 0 6.769-5.063 13.314 13.314 0 0 0 2.591-6.521 11.964 11.964 0 0 0 -2.9-9.3 9.95 9.95 0 0 0 -9.088-3.106 8.529 8.529 0 0 0 -6.665 6.696zm6.772 2.244a5.768 5.768 0 0 1 5.259 1.8 6.924 6.924 0 0 1 1.671 5.374 7.7 7.7 0 0 1 -1.494 3.771 9.693 9.693 0 0 1 -3.915 2.93l-2.91.415q-.955-3.216-1.907-6.426a8.967 8.967 0 0 1 -.552-3.994 4.941 4.941 0 0 1 3.848-3.868z" fill="#d9e2e9"/><path d="m100.5 85.071a1 1 0 0 1 -.958-.715l-3.3-11.117c-.632-2.115-1.419-4.75-.986-7.349a9.491 9.491 0 0 1 7.454-7.51 10.975 10.975 0 0 1 10.022 3.411 12.984 12.984 0 0 1 3.154 10.083 14.254 14.254 0 0 1 -2.786 7.016 17.575 17.575 0 0 1 -7.173 5.378.977.977 0 0 1 -.252.071l-5.035.722a1 1 0 0 1 -.14.01zm2.718-15.794a3.938 3.938 0 0 0 -3.061 3.049 8.2 8.2 0 0 0 .523 3.543l1.662 5.6 1.92-.273a8.645 8.645 0 0 0 3.4-2.564 6.655 6.655 0 0 0 1.3-3.275 5.912 5.912 0 0 0 -1.415-4.591 4.753 4.753 0 0 0 -4.321-1.49zm.793-2.077a6.9 6.9 0 0 1 5 2.216 7.939 7.939 0 0 1 1.929 6.16 8.667 8.667 0 0 1 -1.688 4.263c-.107.14-.219.278-.336.414a13.435 13.435 0 0 0 2.589-2.569 12.241 12.241 0 0 0 2.4-6.029 10.958 10.958 0 0 0 -2.64-8.511 8.941 8.941 0 0 0 -8.152-2.8 7.557 7.557 0 0 0 -5.878 5.876 14.468 14.468 0 0 0 .889 6.31c.013-.176.034-.354.063-.532a5.922 5.922 0 0 1 4.635-4.679 6.027 6.027 0 0 1 1.19-.119z" fill="#2f3a5a"/><path d="m62.049 78.717h72.139v16.803h-72.139z" fill="#ef5361" transform="matrix(.526 .851 -.851 .526 120.651 -42.145)"/><path d="m124.222 113.385-14.292 8.832-37.92-61.365 3.507-2.167 35.804 57.942 10.786-6.665z" fill="#da2a47"/><path d="m109.933 123.219a1 1 0 0 1 -.852-.474l-37.921-61.368a1 1 0 0 1 .325-1.377l14.294-8.833a1 1 0 0 1 1.376.325l37.922 61.368a1 1 0 0 1 -.325 1.376l-14.295 8.833a.993.993 0 0 1 -.524.15zm-36.546-62.043 36.87 59.666 12.594-7.782-36.872-59.665z" fill="#2f3a5a"/><path d="m93.006 79.077h10.67v16.803h-10.67z" fill="#d9e2e9" transform="matrix(.526 .851 -.851 .526 121.064 -42.164)"/><g fill="#2f3a5a"><path d="m94 97.434a.983.983 0 0 1 -.229-.027 1 1 0 0 1 -.621-.447l-5.608-9.077a1 1 0 0 1 .325-1.376l14.295-8.833a1 1 0 0 1 1.376.325l5.608 9.077a1 1 0 0 1 -.325 1.376l-14.298 8.833a1 1 0 0 1 -.523.149zm-4.232-9.751 4.558 7.375 12.594-7.782-4.561-7.376z"/><path d="m60.9 53.646a1 1 0 0 1 -.948-1.317c.227-.681 5.759-16.744 23.309-22.886a1 1 0 1 1 .66 1.888c-16.629 5.821-22.021 21.469-22.069 21.631a1 1 0 0 1 -.952.684z"/><path d="m25.75 53.646a1 1 0 0 1 -.948-.683c-.053-.157-5.475-15.822-22.072-21.631a1 1 0 1 1 .66-1.888c17.549 6.141 23.082 22.204 23.31 22.885a1 1 0 0 1 -.948 1.316z"/><path d="m44.592 48.284a1 1 0 0 1 -.658-.247 3.91 3.91 0 0 1 .229-6.074l2.05-1.535a1.91 1.91 0 0 0 0-3.058l-1.353-1.013a3.911 3.911 0 0 1 .429-6.538 1.91 1.91 0 0 0 .124-3.255l-.748-.5a3.91 3.91 0 0 1 -.258-6.321 1 1 0 1 1 1.24 1.568 1.911 1.911 0 0 0 .126 3.088l.748.5a3.91 3.91 0 0 1 -.253 6.664 1.91 1.91 0 0 0 -.209 3.194l1.352 1.012a3.91 3.91 0 0 1 0 6.259l-2.05 1.535a1.91 1.91 0 0 0 -.111 2.968 1 1 0 0 1 -.658 1.753z"/><path d="m56.14 39.875a1 1 0 0 1 -.918-.6 3.911 3.911 0 0 1 2.824-5.382l2.512-.5a1.91 1.91 0 0 0 1.317-2.759l-.783-1.5a3.91 3.91 0 0 1 3.208-5.719 1.911 1.911 0 0 0 1.515-2.885l-.461-.77a3.91 3.91 0 0 1 2.491-5.817 1 1 0 1 1 .443 1.95 1.91 1.91 0 0 0 -1.217 2.841l.46.77a3.91 3.91 0 0 1 -3.1 5.906 1.911 1.911 0 0 0 -1.568 2.79l.783 1.5a3.91 3.91 0 0 1 -2.7 5.648l-2.512.5a1.911 1.911 0 0 0 -1.381 2.63 1 1 0 0 1 -.918 1.4z"/><path d="m33.807 40.518a1 1 0 0 1 -.918-1.4 1.91 1.91 0 0 0 -1.38-2.629l-2.509-.499a3.91 3.91 0 0 1 -2.7-5.648l.783-1.5a1.91 1.91 0 0 0 -1.565-2.792 3.909 3.909 0 0 1 -3.1-5.9l.46-.771a1.91 1.91 0 0 0 -1.218-2.841 1 1 0 1 1 .443-1.95 3.909 3.909 0 0 1 2.497 5.812l-.46.771a1.91 1.91 0 0 0 1.515 2.884 3.91 3.91 0 0 1 3.2 5.716l-.783 1.5a1.911 1.911 0 0 0 1.318 2.76l2.512.5a3.909 3.909 0 0 1 2.823 5.382 1 1 0 0 1 -.918.605z"/><path d="m34.047 20.039a1 1 0 0 1 -.877-.52l-1.821-3.33-3.331-1.821a1 1 0 0 1 0-1.755l3.331-1.821 1.821-3.33a1 1 0 0 1 .877-.52 1 1 0 0 1 .877.521l1.821 3.33 3.33 1.821a1 1 0 0 1 0 1.755l-3.33 1.821-1.821 3.33a1 1 0 0 1 -.877.519zm-3.466-6.549 1.983 1.084a1 1 0 0 1 .4.4l1.085 1.982 1.084-1.982a.993.993 0 0 1 .4-.4l1.983-1.084-1.983-1.084a.993.993 0 0 1 -.4-.4l-1.084-1.982-1.085 1.982a1 1 0 0 1 -.4.4z"/><path d="m54.692 24.763a1 1 0 0 1 -.877-.52l-1.169-2.138-2.138-1.169a1 1 0 0 1 0-1.755l2.138-1.169 1.169-2.138a1.04 1.04 0 0 1 1.754 0l1.169 2.138 2.138 1.169a1 1 0 0 1 0 1.755l-2.138 1.169-1.169 2.138a1 1 0 0 1 -.877.52zm-1.62-4.7.79.432a1 1 0 0 1 .4.4l.433.791.433-.791a1 1 0 0 1 .4-.4l.79-.432-.79-.432a1 1 0 0 1 -.4-.4l-.433-.791-.433.791a1 1 0 0 1 -.4.4z"/><path d="m35.248 56.443a1 1 0 0 1 -1-1v-5.943a1 1 0 0 1 2 0v5.948a1 1 0 0 1 -1 .995z"/><path d="m38.223 53.469h-5.949a1 1 0 1 1 0-2h5.948a1 1 0 0 1 0 2z"/><path d="m76.313 25.987a1 1 0 0 1 -1-1v-5.948a1 1 0 0 1 2 0v5.948a1 1 0 0 1 -1 1z"/><path d="m79.288 23.013h-5.948a1 1 0 0 1 0-2h5.948a1 1 0 0 1 0 2z"/><path d="m14.4 28.96a1 1 0 0 1 -1-1v-5.947a1 1 0 0 1 2 0v5.947a1 1 0 0 1 -1 1z"/><path d="m17.379 25.987h-5.948a1 1 0 0 1 0-2h5.948a1 1 0 0 1 0 2z"/></g></svg>